<svg width="1620" height="1620" viewBox="0 0 1620 1620" fill="none" xmlns="http://www.w3.org/2000/svg">
<rect width="1620" height="1620" fill="#171717"/>
<path fill-rule="evenodd" clip-rule="evenodd" d="M810.524 387C572.455 387 380 580.874 380 820.723C380 1012.45 503.313 1174.74 674.38 1232.18C695.768 1236.5 703.602 1222.84 703.602 1211.36C703.602 1201.31 702.897 1166.84 702.897 1130.93C583.136 1156.79 558.197 1079.23 558.197 1079.23C538.95 1028.96 510.433 1016.04 510.433 1016.04C471.235 989.473 513.289 989.473 513.289 989.473C556.769 992.346 579.585 1033.99 579.585 1033.99C618.069 1100.05 680.082 1081.39 705.03 1069.9C708.59 1041.89 720.002 1022.5 732.12 1011.73C636.601 1001.68 536.104 964.34 536.104 797.74C536.104 750.347 553.2 711.572 580.29 681.416C576.016 670.647 561.043 626.117 584.573 566.519C584.573 566.519 620.924 555.027 702.889 611.039C737.981 601.545 774.171 596.716 810.524 596.675C846.876 596.675 883.932 601.707 918.151 611.039C1000.12 555.027 1036.48 566.519 1036.48 566.519C1060 626.117 1045.02 670.647 1040.75 681.416C1068.55 711.572 1084.94 750.347 1084.94 797.74C1084.94 964.34 984.447 1000.96 888.215 1011.73C903.901 1025.37 917.437 1051.22 917.437 1092.16C917.437 1150.32 916.732 1197 916.732 1211.35C916.732 1222.84 924.575 1236.5 945.954 1232.19C1117.02 1174.73 1240.33 1012.45 1240.33 820.723C1241.04 580.874 1047.88 387 810.524 387Z" fill="white"/>
</svg>
