<svg width="313" height="592" viewBox="0 0 313 592" fill="none" xmlns="http://www.w3.org/2000/svg">
<path d="M73.8 1.79994C46.7333 5.79995 21.8 24.0666 9.8 48.6C1.13333 66.3333 0.333328 71.1333 0.333328 108.333C0.333328 145.667 1.13333 150.2 9.93333 168.333C15.2667 179.267 16.8667 181.133 62.2 226.733L108.867 273.667L121.267 261.4L133.667 249.133L88.4667 203.667C50.3333 165.4 42.7333 157.133 39.5333 150.333L35.6667 142.333V108.333V74.3333L39.2667 66.7333C46.7333 50.6 62.4667 38.8666 79.8 36.3333C91.8 34.5999 220.867 34.5999 232.867 36.3333C250.2 38.8666 265.933 50.6 273.4 66.7333L277 74.3333V108.333V142.333L273.133 150.333C269.8 157.4 254.467 173.133 142.333 285.667L15.2667 413L9.8 424.333C0.999995 442.467 0.333328 447.133 0.333328 484.333C0.333328 521.667 1.13333 526.2 9.93333 544.333C20.2 565.667 41.1333 582.6 65.6667 589.267C73.5333 591.4 81.6667 591.667 156.333 591.667C248.067 591.667 245.533 591.933 265.667 581.933C280.2 574.867 295.267 559.533 302.733 544.333C311.533 526.333 312.333 521.533 312.333 484.867C312.333 448.2 310.867 439.667 302.067 422.6C297.667 414.067 291.8 407.533 250.467 365.933L203.8 319L191.4 331.267L179 343.533L224.2 389C262.333 427.267 269.933 435.533 273.133 442.333L277 450.333V484.333V518.333L273.4 525.933C265.933 542.067 249.933 553.8 232.2 556.333C220.733 558.067 91.4 557.933 79.8 556.333C62.4667 553.8 46.7333 542.067 39.2667 525.933L35.6667 518.333V484.333C35.6667 451.267 35.8 450.067 38.8667 443C41.6667 436.467 57.1333 420.6 169.667 307.667L297.4 179.667L302.867 168.333C311.667 150.2 312.333 145.533 312.333 108.333C312.333 70.7333 311.267 64.6 302.733 47.8C295.133 33 279.667 17.5333 265.667 10.7333C245.667 0.866611 248.6 1.13328 161 0.866611C117 0.733278 78.6 1.13328 73.8 1.79994Z" fill="white"/>
</svg>
