<svg width="1620" height="1620" viewBox="0 0 1620 1620" fill="none" xmlns="http://www.w3.org/2000/svg">
<rect width="1620" height="1620" fill="black"/>
<path d="M1172.74 733.263C1191.93 675.655 1185.32 612.547 1154.63 560.147C1108.47 479.775 1015.67 438.426 925.04 457.884C884.722 412.464 826.796 386.634 766.068 387.004C673.429 386.792 591.233 446.437 562.733 534.581C503.221 546.769 451.852 584.02 421.792 636.817C375.287 716.977 385.889 818.024 448.018 886.763C428.824 944.371 435.434 1007.48 466.128 1059.88C512.289 1140.25 605.087 1181.6 695.716 1162.14C736.008 1207.56 793.96 1233.39 854.688 1233C947.38 1233.23 1029.6 1173.54 1058.1 1085.31C1117.62 1073.12 1168.98 1035.87 1199.04 983.076C1245.5 902.916 1234.87 801.949 1172.76 733.21L1172.74 733.263ZM854.741 1177.71C817.649 1177.77 781.719 1164.79 753.246 1141.02C754.541 1140.33 756.788 1139.09 758.242 1138.19L926.706 1040.9C935.325 1036.01 940.612 1026.83 940.559 1016.92V779.424L1011.76 820.535C1012.52 820.905 1013.03 821.646 1013.13 822.492V1019.16C1013.03 1106.62 942.198 1177.53 854.741 1177.71ZM514.113 1032.22C495.527 1000.13 488.839 962.508 495.21 925.997C496.453 926.737 498.647 928.085 500.207 928.984L668.67 1026.28C677.21 1031.27 687.785 1031.27 696.351 1026.28L902.013 907.517V989.739C902.065 990.585 901.669 991.404 901.008 991.933L730.72 1090.26C654.87 1133.93 558.001 1107.97 514.14 1032.22H514.113ZM469.777 664.498C488.283 632.349 517.497 607.762 552.29 594.992C552.29 596.446 552.211 599.011 552.211 600.809V795.419C552.158 805.307 557.445 814.481 566.038 819.372L771.699 938.105L700.502 979.217C699.788 979.692 698.889 979.772 698.096 979.428L527.782 881.026C452.09 837.191 426.127 740.349 469.75 664.524L469.777 664.498ZM1054.75 800.627L849.084 681.868L920.281 640.783C920.995 640.307 921.894 640.228 922.687 640.571L1093 738.895C1168.83 782.702 1194.81 879.704 1151.01 955.528C1132.47 987.624 1103.29 1012.21 1068.52 1025.01V824.58C1068.6 814.692 1063.34 805.545 1054.77 800.627H1054.75ZM1125.6 693.976C1124.36 693.21 1122.16 691.888 1120.6 690.989L952.139 593.697C943.6 588.7 933.024 588.7 924.459 593.697L718.797 712.456V630.234C718.744 629.388 719.141 628.568 719.801 628.04L890.089 529.796C965.94 486.041 1062.91 512.082 1106.64 587.96C1125.12 620.003 1131.81 657.518 1125.55 693.976H1125.6ZM680.091 840.522L608.867 799.411C608.101 799.041 607.598 798.301 607.493 797.455V600.782C607.545 513.219 678.585 442.259 766.147 442.312C803.187 442.312 839.037 455.32 867.511 479.008C866.215 479.696 863.995 480.938 862.514 481.837L694.051 579.129C685.432 584.02 680.144 593.168 680.197 603.082L680.091 840.47V840.522ZM718.77 757.137L810.378 704.234L901.986 757.11V862.889L810.378 915.765L718.77 862.889V757.137Z" fill="white"/>
</svg>
